# xmcd
#
# Track frame offsets:
#	150
#	19117
#	32018
#	59028
#	79809
#	96093
#	117034
#	137217
#	157053
#	171818
#	192129
#	213417
#	227553
#	242897
#
# Disc length: 3467 seconds
#
# Revision: 1
# Processed by: cddbd v1.5.1PL2 Copyright (c) Steve Scherf et al.
# Submitted via: audiograbber 1.83.01
#
DISCID=bd0d890e
DTITLE=Robo Mikla - Nedokoncena
DYEAR=2005
DGENRE=Rock
TTITLE0=Nedokoncena
TTITLE1=Bezzuby krokodil
TTITLE2=Smut len sekundu
TTITLE3=Penzion Prepadak
TTITLE4=Bongo Bombo
TTITLE5=Lietajuca princezna
TTITLE6=Par tisic dni
TTITLE7=Psi cas
TTITLE8=Ohen, so mnou pod
TTITLE9=Spachaj zazrak
TTITLE10=Amerika v dusi
TTITLE11=Velky brat Ta vidi
TTITLE12=Mne ku stastiu staci
TTITLE13=Kym Ta mam
EXTD=
EXTT0=
EXTT1=
EXTT2=
EXTT3=
EXTT4=
EXTT5=
EXTT6=
EXTT7=
EXTT8=
EXTT9=
EXTT10=
EXTT11=
EXTT12=
EXTT13=
PLAYORDER=
